<?xml version="1.0" encoding="UTF-8"?>
<svg id="Calque_1" xmlns="http://www.w3.org/2000/svg" viewBox="0 0 260.96 255.57">
    <defs>
        <style>.cls-1{fill:#FFFFFF;}</style>
    </defs>
    <path class="cls-1" d="M194.56,121.22c1.04-2.69,1.62-5.6,1.62-8.65,0-13.14-10.6-23.85-23.7-24.03-.66-12.68-11.14-22.75-23.98-22.75-7.18,0-13.61,3.15-18.01,8.14-4.4-4.99-10.84-8.14-18.01-8.14-12.78,0-23.23,9.98-23.97,22.58v-29.28h-29.47v29.47h29.12c-12.95.36-23.37,10.99-23.37,24.02,0,3.05.58,5.97,1.62,8.65-4.73,4.39-7.7,10.66-7.7,17.62,0,13.26,10.79,24.04,24.04,24.04h26.06l9.83,9.83v23.78h23.68v-23.68l9.94-9.94h25.96c13.26,0,24.04-10.78,24.04-24.04,0-6.95-2.97-13.22-7.7-17.62ZM130.48,130.55h-12.56v-12.54h-29.44v-29.47h29.47v29.45h12.52v12.56Z"/>
</svg>
